<svg xmlns="http://www.w3.org/2000/svg"  width="33" height="32" fill="none" viewBox="100 110 300 300">
    <path d="M246.5 106.237c-4.136 1.488-113.164 64.24-117.5 67.628-1.925 1.505-4.749 5.179-6.276 8.166l-2.775 5.431.275 70.519c.307 78.461-.173 73.116 7.198 80.222 3.638 3.507 114.725 67.739 120.477 69.661 10.228 3.418 10.425 3.329 75.134-33.907 60.29-34.693 61.515-35.498 65.177-42.855l2.29-4.602v-69c0-77.352.259-74.438-7.258-81.75-3.319-3.229-107.357-64.076-117.742-68.863-4.488-2.068-14.139-2.398-19-.65m-7 62.155c-58.694 11.307-90.457 73.584-64.906 127.261 22.764 47.826 81.804 64.961 128.092 37.178 6.951-4.173 18.07-14.359 23.708-21.718 7.954-10.384 8.929-8.565-10.659-19.871-9.479-5.47-18.219-10.464-19.422-11.096-1.975-1.037-2.507-.703-5.486 3.445-15.568 21.678-49.158 23.555-67.849 3.792-26.737-28.27-6.399-75.463 32.482-75.371 13.662.032 31.214 9.648 37.229 20.396.975 1.743 2.549 1.032 20.665-9.324l19.609-11.211-1.673-2.687c-18.703-30.044-57.678-47.366-91.79-40.794m94.864 64.358-.864 5.75-4.25.307c-4.117.298-4.25.415-4.25 3.75 0 3.288.162 3.443 3.611 3.443h3.612l-.646 3.75c-1.665 9.671-1.407 9.25-5.656 9.25-3.814 0-3.921.095-3.921 3.5 0 3.307.186 3.5 3.366 3.5h3.365l-.822 4.25c-1.416 7.322-1.278 7.75 2.503 7.75 3.244 0 3.445-.21 4.073-4.25 1.231-7.917 1.068-7.75 7.582-7.75 6.6 0 6.541-.091 5.024 7.75l-.822 4.25h7.407l.912-5.75.912-5.75 4.25-.307c4.117-.298 4.25-.415 4.25-3.75 0-3.288-.162-3.443-3.611-3.443h-3.612l.646-3.75c1.665-9.671 1.407-9.25 5.656-9.25 3.801 0 3.921-.106 3.921-3.437 0-3.146-.275-3.463-3.25-3.75-1.788-.172-3.191-.763-3.119-1.313.073-.55.438-3.137.812-5.75l.68-4.75h-3.482c-3.074 0-3.55.352-4.062 3l-1.158 6c-.567 2.934-.712 3-6.55 3h-5.97l.679-6 .678-6h-3.515c-3.513 0-3.517.004-4.379 5.75m4.213 17a320.73 320.73 0 0 1-1.191 6.5l-.545 2.75h12.936l.646-3.75c.355-2.062.891-4.988 1.191-6.5l.545-2.75h-12.936l-.646 3.75" fill-rule="evenodd"/><path fill="url(#paint0_linear_1_147)" d="M247.356 106.43c-2.279.713-6.779 2.881-10 4.819-3.221 1.937-28.356 16.428-55.856 32.203-36.175 20.751-51.157 29.872-54.185 32.988-7.564 7.783-7.421 6.117-7.099 82.682l.284 67.378 2.247 4.56c1.237 2.509 3.487 5.736 5 7.173 2.777 2.634 111.79 65.819 118.21 68.515 5.886 2.472 14.144 1.871 21.281-1.548 12.896-6.179 110.448-63.125 114.936-67.095 8.219-7.269 7.918-3.973 7.603-83.193L389.5 185.5l-2.773-4.718c-3.62-6.157-2.583-5.495-64.727-41.306-63.956-36.854-63.34-36.582-74.644-33.046m-10.84 62.17c-42.118 9.382-70.766 44.921-70.859 87.9-.172 80.336 96.651 120.474 153.323 63.561 8.868-8.906 14.746-17.804 12.888-19.509C329.749 298.61 295.42 279 294.138 279c-.626 0-1.138.414-1.138.919 0 1.808-10.348 12.2-14.669 14.733-28.916 16.946-65.006-1.862-67.07-34.953-2.111-33.834 32.584-57.33 63.129-42.751 6.34 3.025 14.325 9.89 17.415 14.972l1.784 2.933 18.848-10.869c10.366-5.978 19.294-11.315 19.84-11.861 2.319-2.319-15.399-22.415-26.277-29.801-19.227-13.056-47.452-18.63-69.484-13.722m97.942 62.15c-1.174 6.956-1.301 7.121-5.758 7.445-4.068.295-4.21.423-4.51 4.055-.311 3.748-.309 3.75 3.61 3.75h3.921l-1.113 6.25-1.113 6.25-3.747.31c-3.544.294-3.748.498-3.748 3.75 0 3.183.232 3.44 3.114 3.44h3.113l-.694 4.628c-.382 2.545-.942 5.274-1.245 6.064-.437 1.138.346 1.371 3.782 1.122l4.333-.314 1.048-5.5 1.049-5.5 5.834-.302c5.217-.271 5.78-.112 5.323 1.5-.281.991-.808 3.715-1.172 6.052l-.661 4.25h4.009c3.658 0 4.059-.262 4.588-3l1.158-6c.54-2.794.884-3 5-3 4.386 0 4.421-.028 4.421-3.5 0-3.3-.19-3.5-3.333-3.5-4.436 0-4.473-.075-3.358-6.996l.967-6.004h3.862c3.839 0 3.862-.024 3.862-4 0-3.778-.167-4-3-4-3.264 0-3.345-.264-2.081-6.801l.831-4.302-4.125.302-4.125.301-.891 5.25-.89 5.25h-5.927c-5.161 0-5.865-.226-5.447-1.75.264-.963.765-3.437 1.113-5.5l.633-3.75h-4c-3.843 0-4.025.147-4.633 3.75m5.201 16c-.253.412-.781 3.338-1.174 6.5l-.715 5.75h5.556c6.465 0 6.262.204 7.189-7.25l.715-5.75h-5.556c-3.056 0-5.763.338-6.015.75" fill-rule="evenodd"/><path fill="url(#paint0_linear_1_147)" d="M321.798 218.834c-35.036 20.205-63.936 36.97-64.22 37.255-.285.285 16.681 10.469 37.702 22.632a139140.28 139140.28 0 0 1 65.016 37.641l26.795 15.528 1.205-2.695c1.804-4.038 1.727-141.779-.081-144.945-.707-1.238-1.607-2.228-2-2.201-.393.026-29.381 16.58-64.417 36.785m12.888 8.916c-.237.412-.741 2.887-1.12 5.5l-.689 4.75H324v4.5c0 4.491.007 4.5 3.561 4.5h3.562l-.679 4.75c-.823 5.769-1.04 6.024-5.444 6.429-3.344.307-3.514.511-3.807 4.571l-.308 4.25h3.625c2.968 0 3.538.317 3.145 1.75-.264.962-.765 3.438-1.113 5.5l-.633 3.75h8.947l.687-5.5.687-5.5h10.914l-.695 5.564-.695 5.563 4.368-.313 4.369-.314.831-5.25.831-5.25H365v-4.5c0-4.476-.019-4.5-3.5-4.5-3.786 0-4.056-.771-2.626-7.5.554-2.606 1.163-3.066 4.632-3.5 3.893-.487 4.002-.608 4.301-4.75l.308-4.25h-3.625c-2.968 0-3.538-.317-3.145-1.75.264-.963.765-3.437 1.113-5.5l.633-3.75h-8.81l-.89 5.25-.891 5.25-5.372.307-5.373.306.695-5.556.694-5.557h-4.013c-2.207 0-4.207.338-4.445.75m4.893 21.25-1.158 6-.58 3h5.512c6.043 0 5.939.112 7.162-7.75l.661-4.25h-5.509c-5.325 0-5.527.1-6.088 3m-103.276 18.831c-10.008 5.868-18.422 10.909-18.698 11.201-.904.957 6.386 9.297 11.457 13.107 16.395 12.319 40.507 11.183 55.795-2.629 3.899-3.522 8.785-10.215 8.007-10.968-1.097-1.062-36.949-21.529-37.594-21.461-.424.045-8.958 4.882-18.967 10.75m-86.04 49.486c-14.43 8.351-26.243 15.505-26.25 15.9-.05 2.744 13.284 11.181 61.863 39.139 63.145 36.342 61.725 35.611 69.124 35.568 7.948-.047 8.634-.397 68.534-34.924C375.697 342.933 386 336.43 386 333.574c0-.902-42.389-26.29-52.102-31.205-.332-.167-2.094 2.043-3.917 4.913-4.764 7.501-19.465 21.537-27.55 26.304-25.464 15.015-55.566 17.326-82.05 6.3-15.313-6.375-30.249-18.438-39.263-31.712-2.306-3.396-4.288-6.144-4.405-6.107-.117.037-12.02 6.9-26.45 15.25" fill-rule="evenodd"/>
    <defs>
    <linearGradient id="paint0_linear_1_147" x1="1.2498" y1="3.19922" x2="16.2498" y2="28.7566" gradientUnits="userSpaceOnUse">
      <stop stop-color="white"/>
      <stop offset="1" stop-color="white" stop-opacity="0.2"/>
    </linearGradient>
    </defs>
</svg>