<svg xmlns="http://www.w3.org/2000/svg" width="32" height="32" viewBox="0 0 35 35" fill="none">
  <path d="M31.2 13.7h-9.4c-0.5 0-0.9 0.6-0.7 1l2.2 5.8c0.1 0.2-0.1 0.5-0.4 0.5l-2.9-0.2c-0.1 0-0.2 0.1-0.3 0.2l-2.2 3.3c-0.1 0.2-0.3 0.2-0.6 0.1l-3.3-2.2c-0.1-0.1-0.3-0.1-0.5 0l-4.6 3.1c-0.3 0.2-0.7-0.1-0.6-0.4l0.4-4.6c0.1-0.2-0.1-0.4-0.2-0.5l-2.4-1c-0.2-0.1-0.3-0.4-0.2-0.6l2.1-2.6c0.1-0.1 0.1-0.3 0-0.5l-1.8-2.6c-0.2-0.2 0-0.6 0.3-0.6l2.8-0.2c0.2 0 0.3-0.2 0.3-0.4l-0.2-3.9c0-0.3 0.3-0.5 0.5-0.4l3.5 1.4c0.2 0.1 0.3 0 0.5-0.1l2.4-2.6c0.2-0.2 0.5-0.2 0.6 0.1l1.4 3.7c0.2 0.5 0.7 0.6 1.1 0.3l5.6-4.2c0.6-0.5 0.2-1.5-0.6-1.4l-5.1 0.6c-0.2 0-0.3-0.1-0.4-0.2l-2-5c-0.2-0.5-0.9-0.6-1.3-0.2l-4.3 4.6c-0.1 0.1-0.3 0.2-0.5 0.1l-5.6-2.4c-0.5-0.2-1 0.1-1.1 0.7l-0.2 5.8c0 0.2-0.2 0.3-0.3 0.3l-5.1 0.3c-0.6 0.1-0.9 0.7-0.6 1.2l3.4 5c0.1 0.1 0.1 0.3 0 0.5l-3.5 4c-0.3 0.3-0.1 0.9 0.3 1l4 1.7c0.2 0.1 0.3 0.3 0.2 0.5l-2.5 9.8c-0.2 0.7 0.6 1.2 1.2 0.8l9.5-6.8c0.1-0.1 0.3-0.1 0.5 0l4.3 3.1c0.3 0.2 0.9 0.2 1.1-0.2l2.7-4.1c0.1-0.1 0.2-0.2 0.3-0.2l6.5 0.8c0.5 0.1 1-0.3 0.9-0.9l-2.7-7c-0.1-0.2 0-0.4 0.2-0.5l4.9-2.3c0.7-0.3 0.4-1.4-0.3-1.4z" transform="translate(5 2)" fill="url(#paint0_linear_1_136)"/>
  <defs>
    <linearGradient id="paint0_linear_1_136" x1="16" y1="2" x2="16" y2="30" gradientUnits="userSpaceOnUse">
      <stop stop-color="white"/>
      <stop offset="1" stop-color="white" stop-opacity="0.2"/>
    </linearGradient>
  </defs>
</svg>