<svg xmlns="http://www.w3.org/2000/svg" width="32" height="32" viewBox="0 0 32 32" fill="none">
  <path d="M14.68 4.68C11 4.68 8.12 5.68 6.48 7.32C4.72 9.08 4 11.2 4 13.6C4 17.44 5.96 21.44 8.68 24.16C9.4 24.88 11.84 27.12 15.08 27.12C18.36 27.12 20.8 25.16 22.32 23.64C25.28 20.68 27.96 15.6 27.96 12.28C27.98 10.88 27.44 9.52 26.44 8.48C23.88 5.92 18.36 4.68 14.68 4.68ZM19.24 17.84C18 19.08 16.8 19.52 15.64 19.52C14.48 19.5 13.4 19.08 12.56 18.28C11.76 17.48 11 16.16 11 14.8C11 13.44 11.52 12.48 12.16 11.84C13 11 14.2 10.4 16 10.4C17.4 10.4 18.72 10.72 19.88 11.88C20.18 12.18 20.4 12.52 20.56 12.92C20.72 13.32 20.8 13.72 20.8 14.16C20.76 15.52 20.2 16.84 19.24 17.84Z" fill="url(#paint0_linear_1_136)"/>
  <defs>
    <linearGradient id="paint0_linear_1_136" x1="16" y1="4" x2="16" y2="28" gradientUnits="userSpaceOnUse">
      <stop stop-color="white"/>
      <stop offset="1" stop-color="white" stop-opacity="0.2"/>
    </linearGradient>
  </defs>
</svg>