<svg xmlns="http://www.w3.org/2000/svg" width="32" height="32" viewBox="0 0 32 32" fill="none">
  <path d="M20.5 20c-1.4 0-2.5-1.1-2.5-2.5s1.1-2.5 2.5-2.5 2.5 1.1 2.5 2.5-1.1 2.5-2.5 2.5m.7-7.3v-2.2c.6-.3.9-.9.9-1.5v-.1c0-.9-.8-1.7-1.7-1.7h-.1c-.9 0-1.7.8-1.7 1.7v.1c0 .7.4 1.3.9 1.5v2.2c-.9.1-1.6.5-2.3 1l-6.1-4.7c0-.2.1-.4.1-.6 0-1.1-.9-1.9-1.9-1.9s-1.9.8-1.9 1.9.8 1.9 1.9 1.9c.3 0 .7-.1.9-.3l6 4.6c-.5.8-.8 1.7-.8 2.6 0 1 .3 2 .9 2.8l-1.8 1.8c-.1 0-.3-.1-.4-.1-.9 0-1.6.7-1.6 1.6s.7 1.6 1.6 1.6 1.6-.7 1.6-1.6c0-.2 0-.3-.1-.4l1.8-1.8c.8.6 1.8 1 2.9 1 2.7 0 4.9-2.2 4.9-4.8 0-2.4-1.8-4.4-4.1-4.8" fill="url(#paint0_linear_1_136)"/>
  <defs>
    <linearGradient id="paint0_linear_1_136" x1="16" y1="4" x2="16" y2="28" gradientUnits="userSpaceOnUse">
      <stop stop-color="white"/>
      <stop offset="1" stop-color="white" stop-opacity="0.2"/>
    </linearGradient>
  </defs>
</svg>